<svg xmlns="http://www.w3.org/2000/svg" width="31.171" height="31.17" viewBox="0 0 31.171 31.17"><g transform="translate(0 -0.016)"><path d="M290.635,209.957H278.3a.974.974,0,1,1,0-1.948h12.338a.974.974,0,1,1,0,1.948Z" transform="translate(-260.439 -195.33)" fill="#015afe"/><path d="M400.965,139.665a.975.975,0,0,1-.688-1.664l4.182-4.182-4.182-4.182a.974.974,0,1,1,1.378-1.378l4.87,4.87a.974.974,0,0,1,0,1.378l-4.87,4.87A.968.968,0,0,1,400.965,139.665Z" transform="translate(-375.64 -120.167)" fill="#015afe"/><path d="M10.39,31.186a2.678,2.678,0,0,1-.805-.121l-7.816-2.6A2.621,2.621,0,0,1,0,25.991V2.614A2.6,2.6,0,0,1,2.6.016,2.678,2.678,0,0,1,3.4.137l7.816,2.6a2.621,2.621,0,0,1,1.769,2.47V28.588A2.6,2.6,0,0,1,10.39,31.186ZM2.6,1.964a.651.651,0,0,0-.649.649V25.991a.675.675,0,0,0,.451.626l7.779,2.592a.705.705,0,0,0,.212.029.651.651,0,0,0,.649-.649V5.211a.675.675,0,0,0-.451-.626L2.809,1.993A.7.7,0,0,0,2.6,1.964Z" fill="#015afe"/><path d="M44.849,10.406a.974.974,0,0,1-.974-.974V3.588a1.626,1.626,0,0,0-1.623-1.624H27.641a.974.974,0,1,1,0-1.948H42.252a3.574,3.574,0,0,1,3.571,3.572V9.432A.974.974,0,0,1,44.849,10.406Z" transform="translate(-25.043)" fill="#015afe"/><path d="M187.5,287.729h-5.2a.974.974,0,1,1,0-1.948h5.2a1.626,1.626,0,0,0,1.623-1.623v-5.844a.974.974,0,1,1,1.948,0v5.844A3.574,3.574,0,0,1,187.5,287.729Z" transform="translate(-170.287 -260.439)" fill="#015afe"/></g></svg>