<svg xmlns="http://www.w3.org/2000/svg" width="24.059" height="24.061" viewBox="0 0 24.059 24.061"><path d="M24.41,9.467l0,0L14.593-.349a2.215,2.215,0,0,0-3.133,0L1.65,9.461l-.01.01a2.214,2.214,0,0,0,1.474,3.774c.023,0,.046,0,.069,0h.391v7.223a2.6,2.6,0,0,0,2.593,2.592h3.84a.7.7,0,0,0,.7-.7V16.7a1.184,1.184,0,0,1,1.183-1.183h2.265A1.184,1.184,0,0,1,15.342,16.7v5.663a.7.7,0,0,0,.7.7h3.84a2.6,2.6,0,0,0,2.593-2.592V13.248h.363a2.215,2.215,0,0,0,1.568-3.78Zm-1,2.135a.8.8,0,0,1-.569.236H21.774a.7.7,0,0,0-.7.7v7.928a1.184,1.184,0,0,1-1.183,1.183H16.752V16.7A2.6,2.6,0,0,0,14.159,14.1H11.894A2.6,2.6,0,0,0,9.3,16.7v4.958H6.166a1.184,1.184,0,0,1-1.183-1.183V12.543a.7.7,0,0,0-.7-.7H3.229l-.033,0a.8.8,0,0,1-.555-1.374h0L12.457.648a.8.8,0,0,1,1.138,0l9.812,9.812,0,0A.807.807,0,0,1,23.411,11.6Z" transform="translate(-0.997 0.998)" fill="#015afe"/></svg>