<svg xmlns="http://www.w3.org/2000/svg" width="1024" height="1024"><path d="M664.251 13.46c-17.662 3.997-31.047 18.225-34.308 36.47-1.589 8.89-.28 17.597 4.042 26.898 2.939 6.325 10.966 14.537 154.308 157.872 139.983 139.977 151.678 151.422 157.556 154.177 9.154 4.292 18.081 5.688 26.738 4.183 30.16-5.243 46.384-36.487 33.265-64.06-2.871-6.036-13.743-17.167-152.222-155.861C755.936 75.294 702.456 22.433 698.574 19.876c-10.145-6.682-22.743-9.037-34.323-6.416M59.5 31.823c-7.442 2.767-10.511 4.546-15.636 9.061-16.547 14.581-19.731 40.029-7.328 58.562 1.86 2.78 201.963 203.568 444.673 446.197C903.02 967.311 922.796 986.924 929.215 989.927c22.69 10.616 49.421.972 60.057-21.668 2.774-5.905 3.219-8.023 3.522-16.759.389-11.243-1.353-18.049-6.764-26.419-1.628-2.52-201.989-203.522-445.245-446.673C115.202 53.011 98.255 36.208 92 33.449c-5.555-2.45-8.027-2.912-17-3.176-8.334-.245-11.531.075-15.5 1.55M47 631.098c-7.206 1.407-16.731 6.676-22.503 12.448-13.24 13.241-16.59 33.785-8.372 51.344 2.914 6.226 11.866 15.382 154.234 157.751 141.669 141.668 151.55 151.331 157.67 154.195 27.699 12.961 58.69-2.899 64.028-32.766 1.646-9.211.187-18.184-4.482-27.568-3.281-6.595-12.28-15.788-154.78-158.128C100.409 656.136 80.813 636.934 76 634.738c-9.718-4.433-18.983-5.596-29-3.64" fill="undefined" fill-rule="evenodd"/></svg>