<svg xmlns="http://www.w3.org/2000/svg" width="189.281" height="28.968" viewBox="0 0 189.281 28.968"><g transform="translate(-1342.51 -757.221)"><path d="M1360.846,785.452a1.673,1.673,0,0,1-1.488-.831l-10.2-11.815h-4.026V784.1a1.264,1.264,0,0,1-1.312,1.313,1.289,1.289,0,0,1-1.312-1.312V758.585a1.29,1.29,0,0,1,1.313-1.314,1.264,1.264,0,0,1,1.313,1.314v11.771h3.939l9.934-12.21c.482-.7.832-.918,1.444-.918,1.138,0,1.531,1.094.832,2.056l-9.934,12.121,10.327,11.9C1362.509,784.4,1361.9,785.452,1360.846,785.452Z" transform="translate(0 0.146)" fill="#fff"/><path d="M1372.887,785.593a14.307,14.307,0,1,1,14-14A14,14,0,0,1,1372.887,785.593Zm0-26.111a11.808,11.808,0,1,0,11.51,11.868A11.689,11.689,0,0,0,1372.887,759.482Z" transform="translate(9.453 0.4)" fill="#fff"/><path d="M1409.237,757.255a1.3,1.3,0,0,1,1.357,1.314v16.322c0,5.033,3.151,8.4,7.921,8.4s7.921-3.37,7.921-8.4V758.569a1.312,1.312,0,1,1,2.625,0v16.278c0,6.608-4.243,10.985-10.59,10.985s-10.5-4.377-10.5-10.985V758.569A1.254,1.254,0,0,1,1409.237,757.255Z" transform="translate(38.301 0.162)" fill="#fff"/><path d="M1447.324,783.233a1.889,1.889,0,0,1,.35,1.1,1.081,1.081,0,0,1-1.182,1.092,1.509,1.509,0,0,1-1.444-.962l-7.089-10.983h-6.74v10.59a1.3,1.3,0,0,1-1.357,1.313,1.253,1.253,0,0,1-1.268-1.312V758.553a1.207,1.207,0,0,1,1.225-1.27h8.446c5.733,0,9.584,3.194,9.584,8.1,0,4.071-2.757,7-7.089,7.878Zm-8.883-12.121c4.024,0,6.651-2.276,6.651-5.733s-2.626-5.733-6.651-5.733h-7.265v11.467Z" transform="translate(50.369 0.178)" fill="#fff"/><path d="M1470.337,785.41a1.6,1.6,0,0,1-1.794-1.138l-2.888-6.87H1451.3l-2.933,6.914a1.449,1.449,0,0,1-1.618,1.094c-.832-.087-1.225-.875-.832-1.794l10.59-24.506c.569-1.357,1.007-1.881,2.057-1.881,1.094,0,1.531.525,2.1,1.881l10.5,24.33C1471.65,784.535,1471.256,785.323,1470.337,785.41Zm-5.689-10.371-6.169-14.573-6.171,14.573Z" transform="translate(60.416 0.146)" fill="#fff"/><g transform="translate(1406.934 757.221)"><g transform="translate(0 17.9)"><path d="M1392.912,779.492a1.3,1.3,0,0,1-.924-.384l-8.453-8.452a1.308,1.308,0,0,1,1.85-1.85l8.452,8.453a1.308,1.308,0,0,1-.924,2.232Z" transform="translate(-1383.153 -768.424)" fill="#fff"/></g><g transform="translate(17.899)"><path d="M1404.2,768.2a1.305,1.305,0,0,1-.924-.382l-8.452-8.453a1.307,1.307,0,0,1,1.848-1.848l8.453,8.452a1.307,1.307,0,0,1-.926,2.232Z" transform="translate(-1394.445 -757.132)" fill="#fff"/></g><g transform="translate(0.497 0.497)"><path d="M1410.132,785.419a1.3,1.3,0,0,1-.926-.384l-25.357-25.357a1.307,1.307,0,0,1,1.848-1.85l25.359,25.359a1.308,1.308,0,0,1-.924,2.232Z" transform="translate(-1383.466 -757.445)" fill="#fff"/></g></g><rect width="2.614" height="1.989" transform="translate(1342.521 768.79)" fill="#fff"/></g></svg>
