<svg xmlns="http://www.w3.org/2000/svg" viewBox="0 0 137.25 37.2"><defs><style>.cls-1{fill:#015afe;}</style></defs><title>KomuraSloganAbajo-Azul</title><g id="Layer_2" data-name="Layer 2"><g id="Layer_1-2" data-name="Layer 1"><path class="cls-1" d="M13.3,20.75a1.2,1.2,0,0,1-1.08-.6l-7.4-8.57H1.9v8.19a.91.91,0,0,1-.95.95A.93.93,0,0,1,0,19.77V1.27A.93.93,0,0,1,1,.32a.91.91,0,0,1,1,1V9.81H4.76L12,1c.35-.51.61-.66,1-.66.83,0,1.11.79.6,1.49l-7.2,8.79L13.9,19.2C14.5,20,14.06,20.75,13.3,20.75Z"/><path class="cls-1" d="M28.88,21A10.41,10.41,0,0,1,18.57,10.57a10.32,10.32,0,1,1,20.63,0A10.4,10.4,0,0,1,28.88,21Zm0-19.2a8.53,8.53,0,0,0-8.31,8.73,8.49,8.49,0,0,0,8.31,8.63,8.48,8.48,0,0,0,8.35-8.63A8.52,8.52,0,0,0,28.88,1.84Z"/><path class="cls-1" d="M76.16.32a.94.94,0,0,1,1,1V13.11c0,3.64,2.29,6.09,5.74,6.09s5.75-2.45,5.75-6.09V1.27a1,1,0,0,1,1.9,0v11.8c0,4.79-3.08,8-7.68,8s-7.61-3.18-7.61-8V1.27A.91.91,0,0,1,76.16.32Z"/><path class="cls-1" d="M112.52,19.17a1.3,1.3,0,0,1,.26.79.79.79,0,0,1-.86.79,1.08,1.08,0,0,1-1-.7l-5.15-8h-4.88v7.68a1,1,0,0,1-1,.95.91.91,0,0,1-.92-.95V1.27a.87.87,0,0,1,.89-.92H106c4.15,0,7,2.32,7,5.87,0,3-2,5.08-5.14,5.71Zm-6.44-8.79c2.92,0,4.83-1.65,4.83-4.16S109,2.06,106.08,2.06h-5.26v8.32Z"/><path class="cls-1" d="M136.5,20.72a1.16,1.16,0,0,1-1.3-.82l-2.1-5H122.69l-2.12,5a1.05,1.05,0,0,1-1.18.79c-.6-.06-.88-.63-.6-1.3l7.68-17.77c.41-1,.73-1.36,1.49-1.36s1.11.38,1.53,1.36l7.61,17.64C137.45,20.09,137.16,20.66,136.5,20.72Zm-4.13-7.52L127.9,2.63,123.42,13.2Z"/><path class="cls-1" d="M53.79,21.18a.94.94,0,0,1-.67-.28L47,14.77a.95.95,0,1,1,1.34-1.34l6.13,6.13a1,1,0,0,1,0,1.34A.92.92,0,0,1,53.79,21.18Z"/><path class="cls-1" d="M66.77,8.2a.94.94,0,0,1-.67-.28L60,1.79A.95.95,0,0,1,61.31.45l6.13,6.13a1,1,0,0,1,0,1.34A.92.92,0,0,1,66.77,8.2Z"/><path class="cls-1" d="M66.41,20.82a.94.94,0,0,1-.67-.28L47.35,2.16a1,1,0,0,1,0-1.35,1,1,0,0,1,1.34,0L67.08,19.2a1,1,0,0,1,0,1.34A.92.92,0,0,1,66.41,20.82Z"/><rect class="cls-1" x="0.01" y="8.56" width="1.9" height="1.44"/><path class="cls-1" d="M25.34,37.12a.32.32,0,0,1-.29-.16L23,34.6h-.8v2.25a.25.25,0,0,1-.27.26.26.26,0,0,1-.26-.26V31.76a.27.27,0,0,1,.26-.27.26.26,0,0,1,.27.27v2.35H23l2-2.44a.3.3,0,0,1,.29-.18c.22,0,.3.21.16.41l-2,2.42,2.06,2.38A.24.24,0,0,1,25.34,37.12Z"/><path class="cls-1" d="M28.84,31.49a.27.27,0,0,1,.27.27v5.09a.26.26,0,0,1-.27.26.25.25,0,0,1-.26-.26V31.76A.26.26,0,0,1,28.84,31.49Z"/><path class="cls-1" d="M37.25,31.76v5c0,.2-.09.33-.27.33s-.3-.09-.44-.29L33.15,32.4v4.45a.25.25,0,0,1-.27.26.24.24,0,0,1-.25-.26v-5c0-.2.09-.34.29-.34a.43.43,0,0,1,.38.25l3.43,4.5V31.76a.26.26,0,0,1,.26-.27A.25.25,0,0,1,37.25,31.76Z"/><path class="cls-1" d="M41,31.5h1.32a2.85,2.85,0,0,1,3.16,2.81,2.77,2.77,0,0,1-3,2.8H41a.25.25,0,0,1-.25-.26V31.76A.25.25,0,0,1,41,31.5Zm.28,5.12h1.09a2.33,2.33,0,1,0,0-4.63H41.3Z"/><path class="cls-1" d="M49,31.56a.26.26,0,0,1,.27.27v4.79H52a.23.23,0,0,1,.25.24.24.24,0,0,1-.25.25H49a.25.25,0,0,1-.25-.26v-5A.25.25,0,0,1,49,31.56Z"/><path class="cls-1" d="M58.1,31.87l-2,3.3v1.68a.25.25,0,0,1-.26.26.25.25,0,0,1-.26-.26V35.19l-2-3.28c-.13-.22,0-.42.2-.42a.3.3,0,0,1,.26.17l1.76,3,1.75-3a.31.31,0,0,1,.28-.19C58.12,31.49,58.21,31.68,58.1,31.87Z"/><path class="cls-1" d="M69.47,31.76v5c0,.2-.1.33-.27.33s-.3-.09-.44-.29L65.37,32.4v4.45a.25.25,0,0,1-.27.26.24.24,0,0,1-.25-.26v-5c0-.2.09-.34.29-.34a.43.43,0,0,1,.38.25L69,36.24V31.76a.26.26,0,0,1,.26-.27A.25.25,0,0,1,69.47,31.76Z"/><path class="cls-1" d="M73.23,31.5H76.3a.24.24,0,0,1,.26.25.24.24,0,0,1-.26.24H73.51v2.07H76a.24.24,0,1,1,0,.48H73.51v2.08H76.3a.24.24,0,0,1,.26.24.24.24,0,0,1-.26.25H73.23a.24.24,0,0,1-.24-.26V31.76A.24.24,0,0,1,73.23,31.5Z"/><path class="cls-1" d="M81.21,36.85a.25.25,0,0,1-.27.26.24.24,0,0,1-.25-.26V32H79.05a.22.22,0,0,1-.24-.24.23.23,0,0,1,.24-.25h3.79a.23.23,0,0,1,.24.25.23.23,0,0,1-.24.24H81.21Z"/><path class="cls-1" d="M93.17,31.9l-1.63,4.93a.37.37,0,0,1-.41.29.38.38,0,0,1-.4-.29l-1.47-4.61-1.49,4.62a.35.35,0,0,1-.39.28.38.38,0,0,1-.4-.28L85.36,31.9c-.08-.24,0-.39.23-.41a.29.29,0,0,1,.32.24l1.49,4.72,1.45-4.62a.41.41,0,0,1,.42-.34.4.4,0,0,1,.42.34l1.47,4.6,1.44-4.65c.07-.22.19-.31.35-.29S93.24,31.67,93.17,31.9Z"/><path class="cls-1" d="M98.46,37.2a2.9,2.9,0,1,1,2.84-2.88A2.87,2.87,0,0,1,98.46,37.2Zm0-5.29a2.4,2.4,0,0,0,0,4.79,2.4,2.4,0,0,0,0-4.79Z"/><path class="cls-1" d="M108.27,36.69a.32.32,0,0,1,.07.22.21.21,0,0,1-.23.21.3.3,0,0,1-.29-.19l-1.42-2.19h-1.34v2.11a.26.26,0,0,1-.27.26.25.25,0,0,1-.26-.26V31.76a.25.25,0,0,1,.25-.26h1.69c1.14,0,1.91.64,1.91,1.62A1.59,1.59,0,0,1,107,34.69Zm-1.77-2.42a1.16,1.16,0,1,0,0-2.29h-1.45v2.29Z"/><path class="cls-1" d="M115.33,37.12A.32.32,0,0,1,115,37l-2-2.36h-.8v2.25a.25.25,0,0,1-.27.26.26.26,0,0,1-.26-.26V31.76a.27.27,0,0,1,.26-.27.26.26,0,0,1,.27.27v2.35H113l2-2.44a.3.3,0,0,1,.29-.18c.22,0,.3.21.16.41l-2,2.42,2.06,2.38C115.66,36.91,115.53,37.12,115.33,37.12Z"/></g></g></svg>