<svg xmlns="http://www.w3.org/2000/svg" viewBox="0 -1 120 20"><defs><style>.cls-1{fill:#fff;}</style></defs><title>KomuraLogo-Blanco</title><g id="Layer_2" data-name="Layer 2"><g id="Layer_1-2" data-name="Layer 1"><path class="cls-1" d="M11.57,18.06a1,1,0,0,1-.94-.53L4.2,10.08H1.66V17.2A.8.8,0,0,1,.83,18,.82.82,0,0,1,0,17.2V1.1A.81.81,0,0,1,.83.28a.8.8,0,0,1,.83.82V8.53H4.14L10.41.83c.3-.44.52-.58.91-.58.72,0,1,.69.52,1.3L5.58,9.19l6.51,7.51C12.62,17.39,12.23,18.06,11.57,18.06Z"/><path class="cls-1" d="M25.13,18.3a9.05,9.05,0,0,1-9-9.11,9,9,0,1,1,17.94,0A9,9,0,0,1,25.13,18.3Zm0-16.7A7.43,7.43,0,0,0,17.9,9.19a7.39,7.39,0,0,0,7.23,7.51,7.38,7.38,0,0,0,7.26-7.51A7.42,7.42,0,0,0,25.13,1.6Z"/><path class="cls-1" d="M66.26.28a.82.82,0,0,1,.86.82V11.4c0,3.18,2,5.3,5,5.3s5-2.12,5-5.3V1.1a.83.83,0,0,1,1.66,0V11.37c0,4.17-2.68,6.93-6.69,6.93s-6.62-2.76-6.62-6.93V1.1A.79.79,0,0,1,66.26.28Z"/><path class="cls-1" d="M97.9,16.68a1.15,1.15,0,0,1,.22.69.69.69,0,0,1-.74.69,1,1,0,0,1-.92-.61L92,10.52H87.74V17.2a.82.82,0,0,1-.86.83.8.8,0,0,1-.8-.83V1.1a.77.77,0,0,1,.78-.8h5.33c3.61,0,6,2,6,5.11,0,2.57-1.74,4.42-4.47,5ZM92.3,9c2.54,0,4.19-1.44,4.19-3.62S94.84,1.79,92.3,1.79H87.71V9Z"/><path class="cls-1" d="M118.76,18a1,1,0,0,1-1.13-.72L115.8,13h-9l-1.85,4.36a.93.93,0,0,1-1,.69c-.53-.06-.78-.55-.53-1.13L110,1.44c.36-.86.64-1.19,1.3-1.19s1,.33,1.33,1.19l6.62,15.35C119.59,17.48,119.34,18,118.76,18Zm-3.59-6.55-3.89-9.19-3.9,9.19Z"/><path class="cls-1" d="M46.8,18.43a.82.82,0,0,1-.58-.24l-5.34-5.34a.82.82,0,0,1,1.17-1.16L47.38,17a.83.83,0,0,1-.58,1.41Z"/><path class="cls-1" d="M58.09,7.14a.83.83,0,0,1-.58-.25L52.18,1.56a.83.83,0,0,1,0-1.17.82.82,0,0,1,1.16,0l5.34,5.34a.82.82,0,0,1,0,1.16A.87.87,0,0,1,58.09,7.14Z"/><path class="cls-1" d="M57.78,18.11a.82.82,0,0,1-.58-.24l-16-16A.82.82,0,0,1,42.36.71l16,16a.82.82,0,0,1-.58,1.4Z"/><rect class="cls-1" x="0.01" y="7.45" width="1.65" height="1.25"/></g></g></svg>
