<svg xmlns="http://www.w3.org/2000/svg" viewBox="0 0 123.76 29.13"><defs><style>.cls-1{fill:#015afe;}</style></defs><title>KomuraReducido-Azul</title><g id="Layer_2" data-name="Layer 2"><g id="Layer_1-2" data-name="Layer 1"><path class="cls-1" d="M9.81,29.13a1.32,1.32,0,0,1-.93-.39l-8.5-8.5a1.31,1.31,0,1,1,1.86-1.85l8.5,8.5a1.32,1.32,0,0,1-.93,2.24Z"/><path class="cls-1" d="M27.81,11.13a1.32,1.32,0,0,1-.93-.39l-8.5-8.5A1.31,1.31,0,0,1,20.24.39l8.5,8.5a1.32,1.32,0,0,1-.93,2.24Z"/><path class="cls-1" d="M27.31,28.63a1.32,1.32,0,0,1-.93-.39L.88,2.74A1.31,1.31,0,0,1,2.74.89l25.5,25.5a1.32,1.32,0,0,1-.93,2.24Z"/><path class="cls-1" d="M49,9a.53.53,0,0,1-.47-.27L45.29,4.94H44V8.53a.4.4,0,0,1-.42.41.41.41,0,0,1-.42-.41V.43A.41.41,0,0,1,43.6,0,.4.4,0,0,1,44,.43V4.17h1.24L48.42.29c.15-.22.26-.29.45-.29.37,0,.49.35.27.65L46,4.5l3.27,3.78C49.53,8.62,49.33,9,49,9Z"/><path class="cls-1" d="M54.55,0A.41.41,0,0,1,55,.43v8.1a.41.41,0,0,1-.43.41.39.39,0,0,1-.4-.41V.43A.39.39,0,0,1,54.55,0Z"/><path class="cls-1" d="M67.92.43v8c0,.32-.16.53-.43.53s-.47-.16-.7-.46l-5.38-7V8.53a.41.41,0,0,1-.44.41.4.4,0,0,1-.4-.41v-8c0-.32.15-.54.46-.54s.43.14.61.4l5.45,7.15V.43a.42.42,0,1,1,.83,0Z"/><path class="cls-1" d="M73.9,0H76c3,0,5,1.8,5,4.46S79.08,8.93,76.2,8.93H73.9a.39.39,0,0,1-.39-.4V.43A.38.38,0,0,1,73.9,0Zm.46,8.12h1.72c2.46,0,4.08-1.46,4.08-3.66S78.54.81,76.06.81h-1.7Z"/><path class="cls-1" d="M86.54.12A.41.41,0,0,1,87,.54V8.15h4.42a.39.39,0,0,1,0,.78H86.53a.38.38,0,0,1-.39-.4v-8A.39.39,0,0,1,86.54.12Z"/><path class="cls-1" d="M101,.61,97.9,5.86V8.53a.41.41,0,0,1-.42.41.4.4,0,0,1-.42-.41V5.89L94,.67c-.2-.35,0-.67.32-.67a.47.47,0,0,1,.42.28L97.49,5,100.27.31a.5.5,0,0,1,.44-.31A.37.37,0,0,1,101,.61Z"/><path class="cls-1" d="M50.53,20.48v8c0,.32-.16.52-.43.52s-.47-.15-.7-.45l-5.38-7v7.06a.42.42,0,0,1-.44.42.4.4,0,0,1-.4-.42v-8c0-.32.15-.54.46-.54s.43.14.61.4l5.44,7.15V20.48a.42.42,0,0,1,.42-.42A.4.4,0,0,1,50.53,20.48Z"/><path class="cls-1" d="M56.51,20.08h4.87a.39.39,0,1,1,0,.77H57v3.28h3.88a.38.38,0,0,1,.4.39.38.38,0,0,1-.4.39H57V28.2h4.43a.37.37,0,0,1,.4.39.38.38,0,0,1-.4.39H56.51a.38.38,0,0,1-.39-.41V20.48A.38.38,0,0,1,56.51,20.08Z"/><path class="cls-1" d="M69.18,28.57a.41.41,0,0,1-.43.42.39.39,0,0,1-.4-.42V20.85h-2.6a.39.39,0,1,1,0-.77h6a.39.39,0,1,1,0,.77H69.18Z"/><path class="cls-1" d="M88.18,20.7l-2.59,7.85a.6.6,0,0,1-.66.45.58.58,0,0,1-.62-.45L82,21.21,79.6,28.56A.56.56,0,0,1,79,29a.6.6,0,0,1-.63-.44L75.77,20.7c-.13-.37,0-.61.36-.65a.45.45,0,0,1,.51.39L79,27.93l2.32-7.34a.65.65,0,0,1,.67-.54.61.61,0,0,1,.65.54L85,27.91l2.29-7.39c.1-.36.29-.5.56-.47S88.29,20.34,88.18,20.7Z"/><path class="cls-1" d="M96.59,29.13a4.61,4.61,0,1,1,4.51-4.58A4.55,4.55,0,0,1,96.59,29.13Zm0-8.4a3.8,3.8,0,1,0,3.65,3.82A3.74,3.74,0,0,0,96.59,20.73Z"/><path class="cls-1" d="M112.18,28.31a.62.62,0,0,1,.11.35.34.34,0,0,1-.38.34.48.48,0,0,1-.46-.3l-2.25-3.49h-2.13v3.36a.41.41,0,0,1-.43.42.4.4,0,0,1-.41-.42V20.48a.38.38,0,0,1,.39-.4h2.68c1.82,0,3,1,3,2.56a2.52,2.52,0,0,1-2.25,2.5Zm-2.82-3.85a1.84,1.84,0,1,0,0-3.64h-2.31v3.64Z"/><path class="cls-1" d="M123.38,29a.54.54,0,0,1-.48-.26L119.67,25h-1.28v3.58A.4.4,0,0,1,118,29a.41.41,0,0,1-.41-.42V20.48a.41.41,0,0,1,.41-.42.4.4,0,0,1,.42.42v3.73h1.25l3.15-3.87c.16-.22.27-.29.46-.29.36,0,.49.35.27.65l-3.16,3.85,3.28,3.77C123.9,28.67,123.71,29,123.38,29Z"/></g></g></svg>
