<svg xmlns="http://www.w3.org/2000/svg" width="64" height="64" viewBox="0 0 36.5 36.5"><g transform="translate(0 21.918)"><path d="M1395.1,781.977a1.6,1.6,0,0,1-1.132-.47l-10.351-10.349a1.6,1.6,0,1,1,2.265-2.265l10.349,10.351a1.6,1.6,0,0,1-1.131,2.733Z" transform="translate(-1383.153 -768.424)" fill="#015afe"/></g><g transform="translate(21.917)"><path d="M1406.395,770.683a1.6,1.6,0,0,1-1.132-.468l-10.349-10.351a1.6,1.6,0,0,1,2.263-2.263l10.351,10.349a1.6,1.6,0,0,1-1.134,2.733Z" transform="translate(-1394.445 -757.132)" fill="#015afe"/></g><g transform="translate(0.608 0.609)"><path d="M1416.117,791.7a1.6,1.6,0,0,1-1.133-.47l-31.048-31.048a1.6,1.6,0,0,1,2.263-2.265l31.05,31.05a1.6,1.6,0,0,1-1.132,2.733Z" transform="translate(-1383.466 -757.446)" fill="#015afe"/></g></svg>
