<svg xmlns="http://www.w3.org/2000/svg" viewBox="0 0 196.8 201.3"><defs><style>.cls-1{fill:#7a97ab;}</style></defs><title>PatternDots-Gris</title><g id="Layer_2" data-name="Layer 2"><g id="Layer_1-2" data-name="Layer 1"><circle class="cls-1" cx="108.15" cy="0.9" r="0.9"/><circle class="cls-1" cx="108.15" cy="10.4" r="0.9"/><circle class="cls-1" cx="108.15" cy="19.9" r="0.9"/><circle class="cls-1" cx="108.15" cy="29.4" r="0.9"/><circle class="cls-1" cx="108.15" cy="38.9" r="0.9"/><circle class="cls-1" cx="108.15" cy="48.4" r="0.9"/><circle class="cls-1" cx="108.15" cy="57.9" r="0.9"/><circle class="cls-1" cx="108.15" cy="67.4" r="0.9"/><circle class="cls-1" cx="108.15" cy="76.9" r="0.9"/><circle class="cls-1" cx="98.4" cy="0.9" r="0.9"/><circle class="cls-1" cx="98.4" cy="10.4" r="0.9"/><circle class="cls-1" cx="98.4" cy="19.9" r="0.9"/><circle class="cls-1" cx="98.4" cy="29.4" r="0.9"/><circle class="cls-1" cx="98.4" cy="38.9" r="0.9"/><circle class="cls-1" cx="98.4" cy="48.4" r="0.9"/><circle class="cls-1" cx="98.4" cy="57.9" r="0.9"/><circle class="cls-1" cx="98.4" cy="67.4" r="0.9"/><circle class="cls-1" cx="98.4" cy="76.9" r="0.9"/><circle class="cls-1" cx="88.65" cy="0.9" r="0.9"/><circle class="cls-1" cx="88.65" cy="10.4" r="0.9"/><circle class="cls-1" cx="88.65" cy="19.9" r="0.9"/><circle class="cls-1" cx="88.65" cy="29.4" r="0.9"/><circle class="cls-1" cx="88.65" cy="38.9" r="0.9"/><circle class="cls-1" cx="88.65" cy="48.4" r="0.9"/><circle class="cls-1" cx="88.65" cy="57.9" r="0.9"/><circle class="cls-1" cx="88.65" cy="67.4" r="0.9"/><circle class="cls-1" cx="88.65" cy="76.9" r="0.9"/><circle class="cls-1" cx="78.9" cy="0.9" r="0.9"/><circle class="cls-1" cx="78.9" cy="10.4" r="0.9"/><circle class="cls-1" cx="78.9" cy="19.9" r="0.9"/><circle class="cls-1" cx="78.9" cy="29.4" r="0.9"/><circle class="cls-1" cx="78.9" cy="38.9" r="0.9"/><circle class="cls-1" cx="78.9" cy="48.4" r="0.9"/><circle class="cls-1" cx="78.9" cy="57.9" r="0.9"/><circle class="cls-1" cx="78.9" cy="67.4" r="0.9"/><circle class="cls-1" cx="78.9" cy="76.9" r="0.9"/><circle class="cls-1" cx="69.15" cy="0.9" r="0.9"/><circle class="cls-1" cx="69.15" cy="10.4" r="0.9"/><circle class="cls-1" cx="69.15" cy="19.9" r="0.9"/><circle class="cls-1" cx="69.15" cy="29.4" r="0.9"/><circle class="cls-1" cx="69.15" cy="38.9" r="0.9"/><circle class="cls-1" cx="69.15" cy="48.4" r="0.9"/><circle class="cls-1" cx="69.15" cy="57.9" r="0.9"/><circle class="cls-1" cx="69.15" cy="67.4" r="0.9"/><circle class="cls-1" cx="69.15" cy="76.9" r="0.9"/><circle class="cls-1" cx="59.4" cy="0.9" r="0.9"/><circle class="cls-1" cx="59.4" cy="10.4" r="0.9"/><circle class="cls-1" cx="59.4" cy="19.9" r="0.9"/><circle class="cls-1" cx="59.4" cy="29.4" r="0.9"/><circle class="cls-1" cx="59.4" cy="38.9" r="0.9"/><circle class="cls-1" cx="59.4" cy="48.4" r="0.9"/><circle class="cls-1" cx="59.4" cy="57.9" r="0.9"/><circle class="cls-1" cx="59.4" cy="67.4" r="0.9"/><circle class="cls-1" cx="59.4" cy="76.9" r="0.9"/><circle class="cls-1" cx="49.65" cy="0.9" r="0.9"/><circle class="cls-1" cx="49.65" cy="10.4" r="0.9"/><circle class="cls-1" cx="49.65" cy="19.9" r="0.9"/><circle class="cls-1" cx="49.65" cy="29.4" r="0.9"/><circle class="cls-1" cx="49.65" cy="38.9" r="0.9"/><circle class="cls-1" cx="49.65" cy="48.4" r="0.9"/><circle class="cls-1" cx="49.65" cy="57.9" r="0.9"/><circle class="cls-1" cx="49.65" cy="67.4" r="0.9"/><circle class="cls-1" cx="49.65" cy="76.9" r="0.9"/><circle class="cls-1" cx="39.9" cy="0.9" r="0.9"/><circle class="cls-1" cx="39.9" cy="10.4" r="0.9"/><circle class="cls-1" cx="39.9" cy="19.9" r="0.9"/><circle class="cls-1" cx="39.9" cy="29.4" r="0.9"/><circle class="cls-1" cx="39.9" cy="38.9" r="0.9"/><circle class="cls-1" cx="39.9" cy="48.4" r="0.9"/><circle class="cls-1" cx="39.9" cy="57.9" r="0.9"/><circle class="cls-1" cx="39.9" cy="67.4" r="0.9"/><circle class="cls-1" cx="39.9" cy="76.9" r="0.9"/><circle class="cls-1" cx="30.15" cy="0.9" r="0.9"/><circle class="cls-1" cx="30.15" cy="10.4" r="0.9"/><circle class="cls-1" cx="30.15" cy="19.9" r="0.9"/><circle class="cls-1" cx="30.15" cy="29.4" r="0.9"/><circle class="cls-1" cx="30.15" cy="38.9" r="0.9"/><circle class="cls-1" cx="30.15" cy="48.4" r="0.9"/><circle class="cls-1" cx="30.15" cy="57.9" r="0.9"/><circle class="cls-1" cx="30.15" cy="67.4" r="0.9"/><circle class="cls-1" cx="30.15" cy="76.9" r="0.9"/><circle class="cls-1" cx="20.4" cy="0.9" r="0.9"/><circle class="cls-1" cx="20.4" cy="10.4" r="0.9"/><circle class="cls-1" cx="20.4" cy="19.9" r="0.9"/><circle class="cls-1" cx="20.4" cy="29.4" r="0.9"/><circle class="cls-1" cx="20.4" cy="38.9" r="0.9"/><circle class="cls-1" cx="20.4" cy="48.4" r="0.9"/><circle class="cls-1" cx="20.4" cy="57.9" r="0.9"/><circle class="cls-1" cx="20.4" cy="67.4" r="0.9"/><circle class="cls-1" cx="20.4" cy="76.9" r="0.9"/><circle class="cls-1" cx="10.65" cy="0.9" r="0.9"/><circle class="cls-1" cx="10.65" cy="10.4" r="0.9"/><circle class="cls-1" cx="10.65" cy="19.9" r="0.9"/><circle class="cls-1" cx="10.65" cy="29.4" r="0.9"/><circle class="cls-1" cx="10.65" cy="38.9" r="0.9"/><circle class="cls-1" cx="10.65" cy="48.4" r="0.9"/><circle class="cls-1" cx="10.65" cy="57.9" r="0.9"/><circle class="cls-1" cx="10.65" cy="67.4" r="0.9"/><circle class="cls-1" cx="10.65" cy="76.9" r="0.9"/><circle class="cls-1" cx="0.9" cy="0.9" r="0.9"/><circle class="cls-1" cx="0.9" cy="10.4" r="0.9"/><circle class="cls-1" cx="0.9" cy="19.9" r="0.9"/><circle class="cls-1" cx="0.9" cy="29.4" r="0.9"/><circle class="cls-1" cx="0.9" cy="38.9" r="0.9"/><circle class="cls-1" cx="0.9" cy="48.4" r="0.9"/><circle class="cls-1" cx="0.9" cy="57.9" r="0.9"/><circle class="cls-1" cx="0.9" cy="67.4" r="0.9"/><circle class="cls-1" cx="0.9" cy="76.9" r="0.9"/><circle class="cls-1" cx="108.15" cy="86.4" r="0.9"/><circle class="cls-1" cx="108.15" cy="95.9" r="0.9"/><circle class="cls-1" cx="108.15" cy="105.4" r="0.9"/><circle class="cls-1" cx="108.15" cy="114.9" r="0.9"/><circle class="cls-1" cx="108.15" cy="124.4" r="0.9"/><circle class="cls-1" cx="108.15" cy="133.9" r="0.9"/><circle class="cls-1" cx="108.15" cy="143.4" r="0.9"/><circle class="cls-1" cx="108.15" cy="152.9" r="0.9"/><circle class="cls-1" cx="108.15" cy="162.4" r="0.9"/><circle class="cls-1" cx="108.15" cy="171.9" r="0.9"/><circle class="cls-1" cx="98.4" cy="86.4" r="0.9"/><circle class="cls-1" cx="98.4" cy="95.9" r="0.9"/><circle class="cls-1" cx="98.4" cy="105.4" r="0.9"/><circle class="cls-1" cx="98.4" cy="114.9" r="0.9"/><circle class="cls-1" cx="98.4" cy="124.4" r="0.9"/><circle class="cls-1" cx="98.4" cy="133.9" r="0.9"/><circle class="cls-1" cx="98.4" cy="143.4" r="0.9"/><circle class="cls-1" cx="98.4" cy="152.9" r="0.9"/><circle class="cls-1" cx="98.4" cy="162.4" r="0.9"/><circle class="cls-1" cx="98.4" cy="171.9" r="0.9"/><circle class="cls-1" cx="88.65" cy="86.4" r="0.9"/><circle class="cls-1" cx="88.65" cy="95.9" r="0.9"/><circle class="cls-1" cx="88.65" cy="105.4" r="0.9"/><circle class="cls-1" cx="88.65" cy="114.9" r="0.9"/><circle class="cls-1" cx="88.65" cy="124.4" r="0.9"/><circle class="cls-1" cx="88.65" cy="133.9" r="0.9"/><circle class="cls-1" cx="88.65" cy="143.4" r="0.9"/><circle class="cls-1" cx="88.65" cy="152.9" r="0.9"/><circle class="cls-1" cx="88.65" cy="162.4" r="0.9"/><circle class="cls-1" cx="88.65" cy="171.9" r="0.9"/><circle class="cls-1" cx="78.9" cy="86.4" r="0.9"/><circle class="cls-1" cx="78.9" cy="95.9" r="0.9"/><circle class="cls-1" cx="78.9" cy="105.4" r="0.9"/><circle class="cls-1" cx="78.9" cy="114.9" r="0.9"/><circle class="cls-1" cx="78.9" cy="124.4" r="0.9"/><circle class="cls-1" cx="78.9" cy="133.9" r="0.9"/><circle class="cls-1" cx="78.9" cy="143.4" r="0.9"/><circle class="cls-1" cx="78.9" cy="152.9" r="0.9"/><circle class="cls-1" cx="78.9" cy="162.4" r="0.9"/><circle class="cls-1" cx="78.9" cy="171.9" r="0.9"/><circle class="cls-1" cx="69.15" cy="86.4" r="0.9"/><circle class="cls-1" cx="69.15" cy="95.9" r="0.9"/><circle class="cls-1" cx="69.15" cy="105.4" r="0.9"/><circle class="cls-1" cx="69.15" cy="114.9" r="0.9"/><circle class="cls-1" cx="69.15" cy="124.4" r="0.9"/><circle class="cls-1" cx="69.15" cy="133.9" r="0.9"/><circle class="cls-1" cx="69.15" cy="143.4" r="0.9"/><circle class="cls-1" cx="69.15" cy="152.9" r="0.9"/><circle class="cls-1" cx="69.15" cy="162.4" r="0.9"/><circle class="cls-1" cx="69.15" cy="171.9" r="0.9"/><circle class="cls-1" cx="59.4" cy="86.4" r="0.9"/><circle class="cls-1" cx="59.4" cy="95.9" r="0.9"/><circle class="cls-1" cx="59.4" cy="105.4" r="0.9"/><circle class="cls-1" cx="59.4" cy="114.9" r="0.9"/><circle class="cls-1" cx="59.4" cy="124.4" r="0.9"/><circle class="cls-1" cx="59.4" cy="133.9" r="0.9"/><circle class="cls-1" cx="59.4" cy="143.4" r="0.9"/><circle class="cls-1" cx="59.4" cy="152.9" r="0.9"/><circle class="cls-1" cx="59.4" cy="162.4" r="0.9"/><circle class="cls-1" cx="59.4" cy="171.9" r="0.9"/><circle class="cls-1" cx="49.65" cy="86.4" r="0.9"/><circle class="cls-1" cx="49.65" cy="95.9" r="0.9"/><circle class="cls-1" cx="49.65" cy="105.4" r="0.9"/><circle class="cls-1" cx="49.65" cy="114.9" r="0.9"/><circle class="cls-1" cx="49.65" cy="124.4" r="0.9"/><circle class="cls-1" cx="49.65" cy="133.9" r="0.9"/><circle class="cls-1" cx="49.65" cy="143.4" r="0.9"/><circle class="cls-1" cx="49.65" cy="152.9" r="0.9"/><circle class="cls-1" cx="49.65" cy="162.4" r="0.9"/><circle class="cls-1" cx="49.65" cy="171.9" r="0.9"/><circle class="cls-1" cx="39.9" cy="86.4" r="0.9"/><circle class="cls-1" cx="39.9" cy="95.9" r="0.9"/><circle class="cls-1" cx="39.9" cy="105.4" r="0.9"/><circle class="cls-1" cx="39.9" cy="114.9" r="0.9"/><circle class="cls-1" cx="39.9" cy="124.4" r="0.9"/><circle class="cls-1" cx="39.9" cy="133.9" r="0.9"/><circle class="cls-1" cx="39.9" cy="143.4" r="0.9"/><circle class="cls-1" cx="39.9" cy="152.9" r="0.9"/><circle class="cls-1" cx="39.9" cy="162.4" r="0.9"/><circle class="cls-1" cx="39.9" cy="171.9" r="0.9"/><circle class="cls-1" cx="30.15" cy="86.4" r="0.9"/><circle class="cls-1" cx="30.15" cy="95.9" r="0.9"/><circle class="cls-1" cx="30.15" cy="105.4" r="0.9"/><circle class="cls-1" cx="30.15" cy="114.9" r="0.9"/><circle class="cls-1" cx="30.15" cy="124.4" r="0.9"/><circle class="cls-1" cx="30.15" cy="133.9" r="0.9"/><circle class="cls-1" cx="30.15" cy="143.4" r="0.9"/><circle class="cls-1" cx="30.15" cy="152.9" r="0.9"/><circle class="cls-1" cx="30.15" cy="162.4" r="0.9"/><circle class="cls-1" cx="30.15" cy="171.9" r="0.9"/><circle class="cls-1" cx="20.4" cy="86.4" r="0.9"/><circle class="cls-1" cx="20.4" cy="95.9" r="0.9"/><circle class="cls-1" cx="20.4" cy="105.4" r="0.9"/><circle class="cls-1" cx="20.4" cy="114.9" r="0.9"/><circle class="cls-1" cx="20.4" cy="124.4" r="0.9"/><circle class="cls-1" cx="20.4" cy="133.9" r="0.9"/><circle class="cls-1" cx="20.4" cy="143.4" r="0.9"/><circle class="cls-1" cx="20.4" cy="152.9" r="0.9"/><circle class="cls-1" cx="20.4" cy="162.4" r="0.9"/><circle class="cls-1" cx="20.4" cy="171.9" r="0.9"/><circle class="cls-1" cx="10.65" cy="86.4" r="0.9"/><circle class="cls-1" cx="10.65" cy="95.9" r="0.9"/><circle class="cls-1" cx="10.65" cy="105.4" r="0.9"/><circle class="cls-1" cx="10.65" cy="114.9" r="0.9"/><circle class="cls-1" cx="10.65" cy="124.4" r="0.9"/><circle class="cls-1" cx="10.65" cy="133.9" r="0.9"/><circle class="cls-1" cx="10.65" cy="143.4" r="0.9"/><circle class="cls-1" cx="10.65" cy="152.9" r="0.9"/><circle class="cls-1" cx="10.65" cy="162.4" r="0.9"/><circle class="cls-1" cx="10.65" cy="171.9" r="0.9"/><circle class="cls-1" cx="0.9" cy="86.4" r="0.9"/><circle class="cls-1" cx="0.9" cy="95.9" r="0.9"/><circle class="cls-1" cx="0.9" cy="105.4" r="0.9"/><circle class="cls-1" cx="0.9" cy="114.9" r="0.9"/><circle class="cls-1" cx="0.9" cy="124.4" r="0.9"/><circle class="cls-1" cx="0.9" cy="133.9" r="0.9"/><circle class="cls-1" cx="0.9" cy="143.4" r="0.9"/><circle class="cls-1" cx="0.9" cy="152.9" r="0.9"/><circle class="cls-1" cx="0.9" cy="162.4" r="0.9"/><circle class="cls-1" cx="0.9" cy="171.9" r="0.9"/><circle class="cls-1" cx="195.9" cy="0.9" r="0.9"/><circle class="cls-1" cx="195.9" cy="10.4" r="0.9"/><circle class="cls-1" cx="195.9" cy="19.9" r="0.9"/><circle class="cls-1" cx="195.9" cy="29.4" r="0.9"/><circle class="cls-1" cx="195.9" cy="38.9" r="0.9"/><circle class="cls-1" cx="195.9" cy="48.4" r="0.9"/><circle class="cls-1" cx="195.9" cy="57.9" r="0.9"/><circle class="cls-1" cx="195.9" cy="67.4" r="0.9"/><circle class="cls-1" cx="195.9" cy="76.9" r="0.9"/><circle class="cls-1" cx="186.15" cy="0.9" r="0.9"/><circle class="cls-1" cx="186.15" cy="10.4" r="0.9"/><circle class="cls-1" cx="186.15" cy="19.9" r="0.9"/><circle class="cls-1" cx="186.15" cy="29.4" r="0.9"/><circle class="cls-1" cx="186.15" cy="38.9" r="0.9"/><circle class="cls-1" cx="186.15" cy="48.4" r="0.9"/><circle class="cls-1" cx="186.15" cy="57.9" r="0.9"/><circle class="cls-1" cx="186.15" cy="67.4" r="0.9"/><circle class="cls-1" cx="186.15" cy="76.9" r="0.9"/><circle class="cls-1" cx="176.4" cy="0.9" r="0.9"/><circle class="cls-1" cx="176.4" cy="10.4" r="0.9"/><circle class="cls-1" cx="176.4" cy="19.9" r="0.9"/><circle class="cls-1" cx="176.4" cy="29.4" r="0.9"/><circle class="cls-1" cx="176.4" cy="38.9" r="0.9"/><circle class="cls-1" cx="176.4" cy="48.4" r="0.9"/><circle class="cls-1" cx="176.4" cy="57.9" r="0.9"/><circle class="cls-1" cx="176.4" cy="67.4" r="0.9"/><circle class="cls-1" cx="176.4" cy="76.9" r="0.9"/><circle class="cls-1" cx="166.65" cy="0.9" r="0.9"/><circle class="cls-1" cx="166.65" cy="10.4" r="0.9"/><circle class="cls-1" cx="166.65" cy="19.9" r="0.9"/><circle class="cls-1" cx="166.65" cy="29.4" r="0.9"/><circle class="cls-1" cx="166.65" cy="38.9" r="0.9"/><circle class="cls-1" cx="166.65" cy="48.4" r="0.9"/><circle class="cls-1" cx="166.65" cy="57.9" r="0.9"/><circle class="cls-1" cx="166.65" cy="67.4" r="0.9"/><circle class="cls-1" cx="166.65" cy="76.9" r="0.9"/><circle class="cls-1" cx="156.9" cy="0.9" r="0.9"/><circle class="cls-1" cx="156.9" cy="10.4" r="0.9"/><circle class="cls-1" cx="156.9" cy="19.9" r="0.9"/><circle class="cls-1" cx="156.9" cy="29.4" r="0.9"/><circle class="cls-1" cx="156.9" cy="38.9" r="0.9"/><circle class="cls-1" cx="156.9" cy="48.4" r="0.9"/><circle class="cls-1" cx="156.9" cy="57.9" r="0.9"/><circle class="cls-1" cx="156.9" cy="67.4" r="0.9"/><circle class="cls-1" cx="156.9" cy="76.9" r="0.9"/><circle class="cls-1" cx="147.15" cy="0.9" r="0.9"/><circle class="cls-1" cx="147.15" cy="10.4" r="0.9"/><circle class="cls-1" cx="147.15" cy="19.9" r="0.9"/><circle class="cls-1" cx="147.15" cy="29.4" r="0.9"/><circle class="cls-1" cx="147.15" cy="38.9" r="0.9"/><circle class="cls-1" cx="147.15" cy="48.4" r="0.9"/><circle class="cls-1" cx="147.15" cy="57.9" r="0.9"/><circle class="cls-1" cx="147.15" cy="67.4" r="0.9"/><circle class="cls-1" cx="147.15" cy="76.9" r="0.9"/><circle class="cls-1" cx="137.4" cy="0.9" r="0.9"/><circle class="cls-1" cx="137.4" cy="10.4" r="0.9"/><circle class="cls-1" cx="137.4" cy="19.9" r="0.9"/><circle class="cls-1" cx="137.4" cy="29.4" r="0.9"/><circle class="cls-1" cx="137.4" cy="38.9" r="0.9"/><circle class="cls-1" cx="137.4" cy="48.4" r="0.9"/><circle class="cls-1" cx="137.4" cy="57.9" r="0.9"/><circle class="cls-1" cx="137.4" cy="67.4" r="0.9"/><circle class="cls-1" cx="137.4" cy="76.9" r="0.9"/><circle class="cls-1" cx="127.65" cy="0.9" r="0.9"/><circle class="cls-1" cx="127.65" cy="10.4" r="0.9"/><circle class="cls-1" cx="127.65" cy="19.9" r="0.9"/><circle class="cls-1" cx="127.65" cy="29.4" r="0.9"/><circle class="cls-1" cx="127.65" cy="38.9" r="0.9"/><circle class="cls-1" cx="127.65" cy="48.4" r="0.9"/><circle class="cls-1" cx="127.65" cy="57.9" r="0.9"/><circle class="cls-1" cx="127.65" cy="67.4" r="0.9"/><circle class="cls-1" cx="127.65" cy="76.9" r="0.9"/><circle class="cls-1" cx="117.9" cy="0.9" r="0.9"/><circle class="cls-1" cx="117.9" cy="10.4" r="0.9"/><circle class="cls-1" cx="117.9" cy="19.9" r="0.9"/><circle class="cls-1" cx="117.9" cy="29.4" r="0.9"/><circle class="cls-1" cx="117.9" cy="38.9" r="0.9"/><circle class="cls-1" cx="117.9" cy="48.4" r="0.9"/><circle class="cls-1" cx="117.9" cy="57.9" r="0.9"/><circle class="cls-1" cx="117.9" cy="67.4" r="0.9"/><circle class="cls-1" cx="117.9" cy="76.9" r="0.9"/><circle class="cls-1" cx="108.15" cy="0.9" r="0.9"/><circle class="cls-1" cx="108.15" cy="10.4" r="0.9"/><circle class="cls-1" cx="108.15" cy="19.9" r="0.9"/><circle class="cls-1" cx="108.15" cy="29.4" r="0.9"/><circle class="cls-1" cx="108.15" cy="38.9" r="0.9"/><circle class="cls-1" cx="108.15" cy="48.4" r="0.9"/><circle class="cls-1" cx="108.15" cy="57.9" r="0.9"/><circle class="cls-1" cx="108.15" cy="67.4" r="0.9"/><circle class="cls-1" cx="108.15" cy="76.9" r="0.9"/><circle class="cls-1" cx="195.9" cy="86.4" r="0.9"/><circle class="cls-1" cx="195.9" cy="95.9" r="0.9"/><circle class="cls-1" cx="195.9" cy="105.4" r="0.9"/><circle class="cls-1" cx="195.9" cy="114.9" r="0.9"/><circle class="cls-1" cx="195.9" cy="124.4" r="0.9"/><circle class="cls-1" cx="195.9" cy="133.9" r="0.9"/><circle class="cls-1" cx="195.9" cy="143.4" r="0.9"/><circle class="cls-1" cx="195.9" cy="152.9" r="0.9"/><circle class="cls-1" cx="195.9" cy="162.4" r="0.9"/><circle class="cls-1" cx="195.9" cy="171.9" r="0.9"/><circle class="cls-1" cx="186.15" cy="86.4" r="0.9"/><circle class="cls-1" cx="186.15" cy="95.9" r="0.9"/><circle class="cls-1" cx="186.15" cy="105.4" r="0.9"/><circle class="cls-1" cx="186.15" cy="114.9" r="0.9"/><circle class="cls-1" cx="186.15" cy="124.4" r="0.9"/><circle class="cls-1" cx="186.15" cy="133.9" r="0.9"/><circle class="cls-1" cx="186.15" cy="143.4" r="0.9"/><circle class="cls-1" cx="186.15" cy="152.9" r="0.9"/><circle class="cls-1" cx="186.15" cy="162.4" r="0.9"/><circle class="cls-1" cx="186.15" cy="171.9" r="0.9"/><circle class="cls-1" cx="176.4" cy="86.4" r="0.9"/><circle class="cls-1" cx="176.4" cy="95.9" r="0.9"/><circle class="cls-1" cx="176.4" cy="105.4" r="0.9"/><circle class="cls-1" cx="176.4" cy="114.9" r="0.9"/><circle class="cls-1" cx="176.4" cy="124.4" r="0.9"/><circle class="cls-1" cx="176.4" cy="133.9" r="0.9"/><circle class="cls-1" cx="176.4" cy="143.4" r="0.9"/><circle class="cls-1" cx="176.4" cy="152.9" r="0.9"/><circle class="cls-1" cx="176.4" cy="162.4" r="0.9"/><circle class="cls-1" cx="176.4" cy="171.9" r="0.9"/><circle class="cls-1" cx="166.65" cy="86.4" r="0.9"/><circle class="cls-1" cx="166.65" cy="95.9" r="0.9"/><circle class="cls-1" cx="166.65" cy="105.4" r="0.9"/><circle class="cls-1" cx="166.65" cy="114.9" r="0.9"/><circle class="cls-1" cx="166.65" cy="124.4" r="0.9"/><circle class="cls-1" cx="166.65" cy="133.9" r="0.9"/><circle class="cls-1" cx="166.65" cy="143.4" r="0.9"/><circle class="cls-1" cx="166.65" cy="152.9" r="0.9"/><circle class="cls-1" cx="166.65" cy="162.4" r="0.9"/><circle class="cls-1" cx="166.65" cy="171.9" r="0.9"/><circle class="cls-1" cx="156.9" cy="86.4" r="0.9"/><circle class="cls-1" cx="156.9" cy="95.9" r="0.9"/><circle class="cls-1" cx="156.9" cy="105.4" r="0.9"/><circle class="cls-1" cx="156.9" cy="114.9" r="0.9"/><circle class="cls-1" cx="156.9" cy="124.4" r="0.9"/><circle class="cls-1" cx="156.9" cy="133.9" r="0.9"/><circle class="cls-1" cx="156.9" cy="143.4" r="0.9"/><circle class="cls-1" cx="156.9" cy="152.9" r="0.9"/><circle class="cls-1" cx="156.9" cy="162.4" r="0.9"/><circle class="cls-1" cx="156.9" cy="171.9" r="0.9"/><circle class="cls-1" cx="147.15" cy="86.4" r="0.9"/><circle class="cls-1" cx="147.15" cy="95.9" r="0.9"/><circle class="cls-1" cx="147.15" cy="105.4" r="0.9"/><circle class="cls-1" cx="147.15" cy="114.9" r="0.9"/><circle class="cls-1" cx="147.15" cy="124.4" r="0.9"/><circle class="cls-1" cx="147.15" cy="133.9" r="0.9"/><circle class="cls-1" cx="147.15" cy="143.4" r="0.9"/><circle class="cls-1" cx="147.15" cy="152.9" r="0.9"/><circle class="cls-1" cx="147.15" cy="162.4" r="0.9"/><circle class="cls-1" cx="147.15" cy="171.9" r="0.9"/><circle class="cls-1" cx="137.4" cy="86.4" r="0.9"/><circle class="cls-1" cx="137.4" cy="95.9" r="0.9"/><circle class="cls-1" cx="137.4" cy="105.4" r="0.9"/><circle class="cls-1" cx="137.4" cy="114.9" r="0.9"/><circle class="cls-1" cx="137.4" cy="124.4" r="0.9"/><circle class="cls-1" cx="137.4" cy="133.9" r="0.9"/><circle class="cls-1" cx="137.4" cy="143.4" r="0.9"/><circle class="cls-1" cx="137.4" cy="152.9" r="0.9"/><circle class="cls-1" cx="137.4" cy="162.4" r="0.9"/><circle class="cls-1" cx="137.4" cy="171.9" r="0.9"/><circle class="cls-1" cx="127.65" cy="86.4" r="0.9"/><circle class="cls-1" cx="127.65" cy="95.9" r="0.9"/><circle class="cls-1" cx="127.65" cy="105.4" r="0.9"/><circle class="cls-1" cx="127.65" cy="114.9" r="0.9"/><circle class="cls-1" cx="127.65" cy="124.4" r="0.9"/><circle class="cls-1" cx="127.65" cy="133.9" r="0.9"/><circle class="cls-1" cx="127.65" cy="143.4" r="0.9"/><circle class="cls-1" cx="127.65" cy="152.9" r="0.9"/><circle class="cls-1" cx="127.65" cy="162.4" r="0.9"/><circle class="cls-1" cx="127.65" cy="171.9" r="0.9"/><circle class="cls-1" cx="117.9" cy="86.4" r="0.9"/><circle class="cls-1" cx="117.9" cy="95.9" r="0.9"/><circle class="cls-1" cx="117.9" cy="105.4" r="0.9"/><circle class="cls-1" cx="117.9" cy="114.9" r="0.9"/><circle class="cls-1" cx="117.9" cy="124.4" r="0.9"/><circle class="cls-1" cx="117.9" cy="133.9" r="0.9"/><circle class="cls-1" cx="117.9" cy="143.4" r="0.9"/><circle class="cls-1" cx="117.9" cy="152.9" r="0.9"/><circle class="cls-1" cx="117.9" cy="162.4" r="0.9"/><circle class="cls-1" cx="117.9" cy="171.9" r="0.9"/><circle class="cls-1" cx="108.15" cy="86.4" r="0.9"/><circle class="cls-1" cx="108.15" cy="95.9" r="0.9"/><circle class="cls-1" cx="108.15" cy="105.4" r="0.9"/><circle class="cls-1" cx="108.15" cy="114.9" r="0.9"/><circle class="cls-1" cx="108.15" cy="124.4" r="0.9"/><circle class="cls-1" cx="108.15" cy="133.9" r="0.9"/><circle class="cls-1" cx="108.15" cy="143.4" r="0.9"/><circle class="cls-1" cx="108.15" cy="152.9" r="0.9"/><circle class="cls-1" cx="108.15" cy="162.4" r="0.9"/><circle class="cls-1" cx="108.15" cy="171.9" r="0.9"/><circle class="cls-1" cx="108.15" cy="171.9" r="0.9"/><circle class="cls-1" cx="108.15" cy="181.4" r="0.9"/><circle class="cls-1" cx="108.15" cy="190.9" r="0.9"/><circle class="cls-1" cx="108.15" cy="200.4" r="0.9"/><circle class="cls-1" cx="98.4" cy="171.9" r="0.9"/><circle class="cls-1" cx="98.4" cy="181.4" r="0.9"/><circle class="cls-1" cx="98.4" cy="190.9" r="0.9"/><circle class="cls-1" cx="98.4" cy="200.4" r="0.9"/><circle class="cls-1" cx="88.65" cy="171.9" r="0.9"/><circle class="cls-1" cx="88.65" cy="181.4" r="0.9"/><circle class="cls-1" cx="88.65" cy="190.9" r="0.9"/><circle class="cls-1" cx="88.65" cy="200.4" r="0.9"/><circle class="cls-1" cx="78.9" cy="171.9" r="0.9"/><circle class="cls-1" cx="78.9" cy="181.4" r="0.9"/><circle class="cls-1" cx="78.9" cy="190.9" r="0.9"/><circle class="cls-1" cx="78.9" cy="200.4" r="0.9"/><circle class="cls-1" cx="69.15" cy="171.9" r="0.9"/><circle class="cls-1" cx="69.15" cy="181.4" r="0.9"/><circle class="cls-1" cx="69.15" cy="190.9" r="0.9"/><circle class="cls-1" cx="69.15" cy="200.4" r="0.9"/><circle class="cls-1" cx="59.4" cy="171.9" r="0.9"/><circle class="cls-1" cx="59.4" cy="181.4" r="0.9"/><circle class="cls-1" cx="59.4" cy="190.9" r="0.9"/><circle class="cls-1" cx="59.4" cy="200.4" r="0.9"/><circle class="cls-1" cx="49.65" cy="171.9" r="0.9"/><circle class="cls-1" cx="49.65" cy="181.4" r="0.9"/><circle class="cls-1" cx="49.65" cy="190.9" r="0.9"/><circle class="cls-1" cx="49.65" cy="200.4" r="0.9"/><circle class="cls-1" cx="39.9" cy="171.9" r="0.9"/><circle class="cls-1" cx="39.9" cy="181.4" r="0.9"/><circle class="cls-1" cx="39.9" cy="190.9" r="0.9"/><circle class="cls-1" cx="39.9" cy="200.4" r="0.9"/><circle class="cls-1" cx="30.15" cy="171.9" r="0.9"/><circle class="cls-1" cx="30.15" cy="181.4" r="0.9"/><circle class="cls-1" cx="30.15" cy="190.9" r="0.9"/><circle class="cls-1" cx="30.15" cy="200.4" r="0.9"/><circle class="cls-1" cx="20.4" cy="171.9" r="0.9"/><circle class="cls-1" cx="20.4" cy="181.4" r="0.9"/><circle class="cls-1" cx="20.4" cy="190.9" r="0.9"/><circle class="cls-1" cx="20.4" cy="200.4" r="0.9"/><circle class="cls-1" cx="10.65" cy="171.9" r="0.9"/><circle class="cls-1" cx="10.65" cy="181.4" r="0.9"/><circle class="cls-1" cx="10.65" cy="190.9" r="0.9"/><circle class="cls-1" cx="10.65" cy="200.4" r="0.9"/><circle class="cls-1" cx="0.9" cy="171.9" r="0.9"/><circle class="cls-1" cx="0.9" cy="181.4" r="0.9"/><circle class="cls-1" cx="0.9" cy="190.9" r="0.9"/><circle class="cls-1" cx="0.9" cy="200.4" r="0.9"/><circle class="cls-1" cx="195.9" cy="171.9" r="0.9"/><circle class="cls-1" cx="195.9" cy="181.4" r="0.9"/><circle class="cls-1" cx="195.9" cy="190.9" r="0.9"/><circle class="cls-1" cx="195.9" cy="200.4" r="0.9"/><circle class="cls-1" cx="186.15" cy="171.9" r="0.9"/><circle class="cls-1" cx="186.15" cy="181.4" r="0.9"/><circle class="cls-1" cx="186.15" cy="190.9" r="0.9"/><circle class="cls-1" cx="186.15" cy="200.4" r="0.9"/><circle class="cls-1" cx="176.4" cy="171.9" r="0.9"/><circle class="cls-1" cx="176.4" cy="181.4" r="0.9"/><circle class="cls-1" cx="176.4" cy="190.9" r="0.9"/><circle class="cls-1" cx="176.4" cy="200.4" r="0.9"/><circle class="cls-1" cx="166.65" cy="171.9" r="0.9"/><circle class="cls-1" cx="166.65" cy="181.4" r="0.9"/><circle class="cls-1" cx="166.65" cy="190.9" r="0.9"/><circle class="cls-1" cx="166.65" cy="200.4" r="0.9"/><circle class="cls-1" cx="156.9" cy="171.9" r="0.9"/><circle class="cls-1" cx="156.9" cy="181.4" r="0.9"/><circle class="cls-1" cx="156.9" cy="190.9" r="0.9"/><circle class="cls-1" cx="156.9" cy="200.4" r="0.9"/><circle class="cls-1" cx="147.15" cy="171.9" r="0.9"/><circle class="cls-1" cx="147.15" cy="181.4" r="0.9"/><circle class="cls-1" cx="147.15" cy="190.9" r="0.9"/><circle class="cls-1" cx="147.15" cy="200.4" r="0.9"/><circle class="cls-1" cx="137.4" cy="171.9" r="0.9"/><circle class="cls-1" cx="137.4" cy="181.4" r="0.9"/><circle class="cls-1" cx="137.4" cy="190.9" r="0.9"/><circle class="cls-1" cx="137.4" cy="200.4" r="0.9"/><circle class="cls-1" cx="127.65" cy="171.9" r="0.9"/><circle class="cls-1" cx="127.65" cy="181.4" r="0.9"/><circle class="cls-1" cx="127.65" cy="190.9" r="0.9"/><circle class="cls-1" cx="127.65" cy="200.4" r="0.9"/><circle class="cls-1" cx="117.9" cy="171.9" r="0.9"/><circle class="cls-1" cx="117.9" cy="181.4" r="0.9"/><circle class="cls-1" cx="117.9" cy="190.9" r="0.9"/><circle class="cls-1" cx="117.9" cy="200.4" r="0.9"/><circle class="cls-1" cx="108.15" cy="171.9" r="0.9"/><circle class="cls-1" cx="108.15" cy="181.4" r="0.9"/><circle class="cls-1" cx="108.15" cy="190.9" r="0.9"/><circle class="cls-1" cx="108.15" cy="200.4" r="0.9"/></g></g></svg>